<svg width="14" height="14" viewBox="0 0 14 14" fill="none" xmlns="http://www.w3.org/2000/svg">
<path fill-rule="evenodd" clip-rule="evenodd" d="M10.2307 3.66966C11.9089 5.42708 11.8448 8.21227 10.0874 9.89055C8.32994 11.5688 5.54476 11.5047 3.86647 9.74726C2.18819 7.98984 2.25235 5.20465 4.00977 3.52637C5.76719 1.84809 8.55238 1.91224 10.2307 3.66966ZM12.013 10.7486C14.0243 8.28357 13.9311 4.64871 11.6771 2.28839C9.23593 -0.267857 5.18475 -0.361174 2.6285 2.07996C0.0722492 4.5211 -0.0210679 8.57228 2.42007 11.1285C4.67409 13.4888 8.30079 13.7493 10.8559 11.8537L12.5476 13.6252C12.8527 13.9447 13.3591 13.9564 13.6787 13.6512C13.9982 13.3461 14.0099 12.8397 13.7047 12.5201L12.013 10.7486Z" fill="#B2B2B2"/>
</svg>
